<svg width="96" height="96" viewBox="0 0 96 96" fill="none" xmlns="http://www.w3.org/2000/svg">
<path d="M12 20C12 16.2288 12 14.3431 13.1716 13.1716C14.3431 12 16.2288 12 20 12H76C79.7712 12 81.6569 12 82.8284 13.1716C84 14.3431 84 16.2288 84 20V76C84 79.7712 84 81.6569 82.8284 82.8284C81.6569 84 79.7712 84 76 84H20C16.2288 84 14.3431 84 13.1716 82.8284C12 81.6569 12 79.7712 12 76V20Z" stroke="#D9DADA" stroke-width="4"/>
<path fill-rule="evenodd" clip-rule="evenodd" d="M14 57.9994L15.4142 59.4136L33.2365 41.5913C34.2294 40.5984 34.8176 40.0176 35.2744 39.6785L35.2943 39.6637L35.3074 39.6848C35.6055 40.1694 35.9359 40.9271 36.489 42.2177L44.998 62.072L45.0386 62.1667C45.2655 62.697 45.515 63.2799 45.7912 63.7287C46.1054 64.2395 46.6979 64.9873 47.77 65.1938C48.8421 65.4002 49.6699 64.926 50.1514 64.5684C50.5745 64.2543 51.0225 63.8058 51.4302 63.3977L51.4302 63.3976L51.5031 63.3248L62.5858 52.2421C63.2924 51.5354 63.6832 51.1507 63.9883 50.9179L64 50.909L64.0117 50.9179C64.3168 51.1507 64.7076 51.5354 65.4142 52.2421L78.5858 65.4136L81.4142 62.5852L68.2426 49.4136L68.1657 49.3367L68.1657 49.3367C67.5661 48.7368 66.9834 48.1539 66.438 47.7378C65.8232 47.2687 65.0273 46.8278 64 46.8278C62.9727 46.8278 62.1768 47.2687 61.562 47.7378C61.0166 48.1539 60.4339 48.7368 59.8343 49.3367L59.7574 49.4136L48.6746 60.4964L40.1656 40.642L40.1121 40.5171C39.6314 39.3949 39.1864 38.3562 38.7142 37.5888C38.203 36.7579 37.4144 35.8313 36.0818 35.5746C34.7492 35.318 33.6728 35.8855 32.8896 36.4671C32.1662 37.0042 31.3673 37.8034 30.5042 38.6667L30.5042 38.6668L30.4081 38.7629L14 55.171V57.9994ZM35.5679 39.4934C35.5678 39.4936 35.5648 39.4949 35.559 39.4967C35.5651 39.4941 35.5679 39.4932 35.5679 39.4934ZM35.1106 39.4104C35.1059 39.4065 35.1036 39.4042 35.1036 39.404C35.1036 39.4038 35.1059 39.4057 35.1106 39.4104Z" fill="#D9DADA"/>
<circle cx="66" cy="30" r="6" fill="#D9DADA"/>
</svg>
