<svg width="58" height="65" viewBox="0 0 58 65" fill="none" xmlns="http://www.w3.org/2000/svg">
<path d="M24.0302 1.84622C27.1088 0.0830805 30.8912 0.0830803 33.9698 1.84622L43.3715 7.23068L52.7769 12.8706C55.7603 14.6595 57.5996 17.8703 57.6337 21.3488L57.743 32.5L57.6337 43.6512C57.5996 47.1297 55.7603 50.3405 52.7769 52.1295L43.3715 57.7693L33.9698 63.1538C30.8912 64.9169 27.1088 64.9169 24.0302 63.1538L14.6285 57.7693L5.2231 52.1294C2.23971 50.3405 0.400381 47.1297 0.366289 43.6512L0.257 32.5L0.366289 21.3488C0.400381 17.8703 2.23972 14.6595 5.22311 12.8706L14.6285 7.23068L24.0302 1.84622Z" fill="#F8F8F8"/>
</svg>
