<svg width="268" height="426" viewBox="0 0 268 426" fill="none" xmlns="http://www.w3.org/2000/svg">
<path d="M182.086 1.77205C185.136 0.0514756 188.864 0.051481 191.914 1.77206L280.197 51.5781L367.472 103.131C370.487 104.912 372.351 108.14 372.386 111.641L373.394 213L372.386 314.359C372.351 317.86 370.487 321.088 367.472 322.869L280.197 374.422L191.914 424.228C188.864 425.949 185.136 425.949 182.086 424.228L93.803 374.422L6.52802 322.869C3.51306 321.088 1.64927 317.86 1.61444 314.359L0.606003 213L1.61444 111.641C1.64927 108.14 3.51307 104.912 6.52803 103.131L93.803 51.5781L182.086 1.77205Z" fill="#F8F8F8"/>
</svg>
